<?xml version="1.0" encoding="UTF-8"?>
<svg id="Layer_2" data-name="Layer 2" xmlns="http://www.w3.org/2000/svg" viewBox="0 0 351.09 317.95">
  <defs>
    <style>
      .cls-1 {
        fill: #00f3ff;
        stroke-width: 0px;
      }
    </style>
  </defs>
  <g id="Layer_1-2" data-name="Layer 1">
    <path class="cls-1" d="M303.69,317.87c-13.83,0-27.66.09-41.49-.1-1.89-.03-4.39-.92-5.53-2.3-15.72-19.06-36.36-29.43-60.19-33.66-32.6-5.79-62.64.58-89.16,20.92-4.57,3.5-8.12,8.32-12.37,12.28-1.42,1.32-3.55,2.63-5.36,2.64-27.99.22-55.98.25-83.98.25-5.93,0-6.77-1.54-4.32-6.97C41.46,221.82,81.61,132.7,121.82,43.61c2.74-6.06,5.63-12.1,8.97-17.84C141.22,7.83,157.11-.75,177.7.05c20.85.81,36.78,10.07,45.64,29.47,14.53,31.81,28.74,63.76,43.1,95.65,27.76,61.65,55.54,123.3,83.31,184.94,2.68,5.96,1.47,7.84-5.08,7.84-13.66,0-27.33,0-40.99,0,0-.03,0-.06,0-.08ZM234.44,174.01,179.25,204.8c-.9,1.79-1.95,3.49-2.85,5.27-4.79,9.4-12.61,14.5-22.99,13.85-10.46-.66-17.13,3.61-21.68,12.54-4.49,8.78-11.84,12.84-21.65,12.21-8.4-.54-14.43,2.99-18.59,10.15-5.05,8.7-12.26,15.32-20.57,20.78-6.91,4.54-13.96,8.87-21.37,13.55.87.27,1.19.45,1.5.46,1.83.02,3.68-.17,5.49.03,12.21,1.34,22.21-2.04,29.51-12.57,3.22-4.65,8.64-5.51,13.98-4.94,6.07.65,10.19-1.41,12.84-7.08,3.19-6.83,8.8-10.82,16.41-9.8,8.2,1.1,12.83-2.12,15.87-9.43,2.44-5.85,6.91-9.67,13.68-10.17,1.38,3.04,1.2,4.85-2.11,6.88-3.05,1.86-5.64,5.14-7.36,8.37-3.87,7.24-9.3,11.28-17.64,10.42-6.45-.67-10.88,1.73-13.77,7.54-3.57,7.19-9.41,10.22-17.56,9.7-3.07-.19-6.99.6-9.24,2.47-3.83,3.19-6.65,7.59-9.48,10.98,3.81,0,8.76-.16,13.69.04,6.37.25,11.89-1.55,17.37-4.92,21.34-13.12,44.73-18.97,69.68-17.45,30.29,1.84,56.56,12.94,77.58,35.42,1.34,1.44,3.97,2.34,6.01,2.36,24.16.17,48.33.12,72.5.11,1.26,0,2.52-.23,4.58-.42-3.28-7.29-6.35-14.07-9.39-20.86-15.56-34.64-31.17-69.26-46.65-103.94-6.85-15.34-18.43-25.37-33.87-31.39-11.55-4.5-23.53-5.88-35.8-5.42-20.84.79-40.21,7.37-59.2,15.25-14.15,5.87-27.18,13.33-36.19,26.45-3.69,5.37-9.52,8.19-15.98,7.92-9.48-.4-15.83,3.83-20.53,11.55-7.05,11.56-16.98,19.97-28.92,26.14-2.15,1.11-4.18,2.45-6.26,3.68,5.78.32,11.2-.21,16.63-.49,11.91-.61,20.96-5.56,26.69-16.38,3.76-7.11,10.01-10.46,18.1-10.26,2,.05,4.01-.08,6,.03,5.01.3,8.69-1.79,11.23-6.03,1.28-2.14,2.68-4.24,3.74-6.49,4.2-8.9,11.31-12.84,20.95-12.23,4.77.3,7.96-1.6,10.06-5.79,2.76-5.49,7.52-8.13,13.43-9.35,1.43,3.39,1.35,5.59-2.66,7.02-2.13.76-4.34,2.86-5.33,4.93-3.74,7.79-9.98,10.18-18.04,9.55-5.63-.44-9.57,2.24-12.26,6.99-1.07,1.88-2.14,3.78-3.03,5.74-4.09,9.01-11.06,13.14-20.86,11.91-8.61-1.08-14.34,2.37-18.25,9.93-3.42,6.61-8.9,10.99-15.85,13.8-13.59,5.49-25.17,14.25-36.66,23.12-.4.31-.52.97-.89,1.7,6.26,0,12.16-.6,17.89.12,12.17,1.54,20.26-3.33,26.2-13.77,5.02-8.81,13.07-13.03,23.47-12.07,6.68.62,11.56-2.27,15.08-7.82,1.79-2.81,3.56-5.64,5.5-8.34,3.61-5,8.61-8.74,14.69-8.23,14.58,1.23,23.6-5.01,29.12-18.2,2.36-5.65,7.66-8.36,13.97-7.6M274.67,159.5c-1.06-2.81-1.56-4.37-2.23-5.86-17.85-39.82-35.64-79.66-53.66-119.4-2.11-4.64-4.96-9.13-8.24-13.03-16.77-19.95-52.37-20.69-68.19-.4-11.44,14.68-20.31,30.92-21.47,50.65-2.11,35.86,19.38,67,54.09,76.04,3.97,1.03,8.61.99,12.63.1,30.06-6.67,59.19-6.96,87.06,11.9ZM103.2,170.91c-.4,7.06-2.66,10.74-7.22,13.11-2.35,1.22-4.58,2.74-6.71,4.33-11.94,8.88-23.84,17.82-35.75,26.74.29.43.58.86.87,1.29,10.74-.65,22.01.99,28.37-11.76,4-8.02,11.6-11.57,20.79-11.33,6.66.18,11.83-2.59,15.59-8.22,5.2-7.79,12.19-13.7,20.48-17.92,8.6-4.37,17.42-8.3,26.15-12.42,1.1-.52,2.23-.98,4.19-1.84-35.64-12.39-52.67-37.96-56.94-73.74-11.21,24.74-22.41,49.47-33.84,74.7,4.02.28,7.34.52,11.87.83-8.05,9.37-15.34,17.86-23.06,26.85,12.73-.51,25.23,1.15,35.23-10.61Z"/>
  </g>
</svg>